<?xml version="1.0" encoding="UTF-8" standalone="no"?>
<!DOCTYPE svg PUBLIC "-//W3C//DTD SVG 1.1//EN"
 "http://www.w3.org/Graphics/SVG/1.1/DTD/svg11.dtd">
<!-- Generated by graphviz version 13.0.0 (20250608.1624)
 -->
<!-- Pages: 1 -->
<svg width="398pt" height="106pt"
 viewBox="0.00 0.00 398.00 106.00" xmlns="http://www.w3.org/2000/svg" xmlns:xlink="http://www.w3.org/1999/xlink">
<g id="graph0" class="graph" transform="scale(1 1) rotate(0) translate(4 102.23)">
<polygon fill="white" stroke="none" points="-4,4 -4,-102.23 394.23,-102.23 394.23,4 -4,4"/>
<!-- &#45;2 -->
<g id="node1" class="node">
<title>&#45;2</title>
<ellipse fill="lightgray" stroke="black" cx="16.62" cy="-81.61" rx="16.62" ry="16.62"/>
<text xml:space="preserve" text-anchor="middle" x="16.62" y="-78.31" font-family="Times,serif" font-size="9.00">&#45;2</text>
</g>
<!-- 0 -->
<g id="node9" class="node">
<title>0</title>
<ellipse fill="lightblue" stroke="black" cx="194.62" cy="-14.5" rx="14.5" ry="14.5"/>
<text xml:space="preserve" text-anchor="middle" x="194.62" y="-11.2" font-family="Times,serif" font-size="9.00">0</text>
</g>
<!-- &#45;2&#45;&gt;0 -->
<g id="edge2" class="edge">
<title>&#45;2&#45;&gt;0</title>
<path fill="none" stroke="red" stroke-width="0.27" d="M30.03,-71.39C33.69,-69.11 37.72,-66.81 41.62,-64.99 85.54,-44.55 140.22,-29.08 170.89,-21.23"/>
<polygon fill="red" stroke="red" stroke-width="0.27" points="171.43,-24.7 180.28,-18.88 169.73,-17.91 171.43,-24.7"/>
</g>
<!-- &#45;8 -->
<g id="node2" class="node">
<title>&#45;8</title>
<ellipse fill="lightgray" stroke="black" cx="67.62" cy="-81.61" rx="16.62" ry="16.62"/>
<text xml:space="preserve" text-anchor="middle" x="67.62" y="-78.31" font-family="Times,serif" font-size="9.00">&#45;8</text>
</g>
<!-- &#45;8&#45;&gt;0 -->
<g id="edge8" class="edge">
<title>&#45;8&#45;&gt;0</title>
<path fill="none" stroke="green" stroke-width="0.3" d="M81.48,-71.59C85.06,-69.35 88.94,-67.02 92.62,-64.99 119.41,-50.18 151.3,-35.09 172.2,-25.53"/>
<polygon fill="green" stroke="green" stroke-width="0.3" points="173.44,-28.82 181.1,-21.5 170.55,-22.44 173.44,-28.82"/>
</g>
<!-- &#45;7 -->
<g id="node3" class="node">
<title>&#45;7</title>
<ellipse fill="lightgray" stroke="black" cx="118.62" cy="-81.61" rx="16.62" ry="16.62"/>
<text xml:space="preserve" text-anchor="middle" x="118.62" y="-78.31" font-family="Times,serif" font-size="9.00">&#45;7</text>
</g>
<!-- &#45;7&#45;&gt;0 -->
<g id="edge7" class="edge">
<title>&#45;7&#45;&gt;0</title>
<path fill="none" stroke="red" stroke-width="0.16" d="M130.83,-70.15C143.17,-59.57 162.4,-43.1 176.52,-31"/>
<polygon fill="red" stroke="red" stroke-width="0.16" points="178.64,-33.79 183.96,-24.63 174.09,-28.47 178.64,-33.79"/>
</g>
<!-- &#45;6 -->
<g id="node4" class="node">
<title>&#45;6</title>
<ellipse fill="lightgray" stroke="black" cx="169.62" cy="-81.61" rx="16.62" ry="16.62"/>
<text xml:space="preserve" text-anchor="middle" x="169.62" y="-78.31" font-family="Times,serif" font-size="9.00">&#45;6</text>
</g>
<!-- &#45;6&#45;&gt;0 -->
<g id="edge6" class="edge">
<title>&#45;6&#45;&gt;0</title>
<path fill="none" stroke="green" stroke-width="0.2" d="M175.42,-65.51C178.56,-57.32 182.51,-47.04 186,-37.93"/>
<polygon fill="green" stroke="green" stroke-width="0.2" points="189.27,-39.2 189.58,-28.61 182.73,-36.69 189.27,-39.2"/>
</g>
<!-- &#45;5 -->
<g id="node5" class="node">
<title>&#45;5</title>
<ellipse fill="lightgray" stroke="black" cx="220.62" cy="-81.61" rx="16.62" ry="16.62"/>
<text xml:space="preserve" text-anchor="middle" x="220.62" y="-78.31" font-family="Times,serif" font-size="9.00">&#45;5</text>
</g>
<!-- &#45;5&#45;&gt;0 -->
<g id="edge5" class="edge">
<title>&#45;5&#45;&gt;0</title>
<path fill="none" stroke="green" stroke-width="0.23" d="M214.72,-65.83C211.42,-57.57 207.23,-47.09 203.54,-37.84"/>
<polygon fill="green" stroke="green" stroke-width="0.23" points="206.88,-36.76 199.92,-28.77 200.38,-39.36 206.88,-36.76"/>
</g>
<!-- &#45;4 -->
<g id="node6" class="node">
<title>&#45;4</title>
<ellipse fill="lightgray" stroke="black" cx="271.62" cy="-81.61" rx="16.62" ry="16.62"/>
<text xml:space="preserve" text-anchor="middle" x="271.62" y="-78.31" font-family="Times,serif" font-size="9.00">&#45;4</text>
</g>
<!-- &#45;4&#45;&gt;0 -->
<g id="edge4" class="edge">
<title>&#45;4&#45;&gt;0</title>
<path fill="none" stroke="green" stroke-width="0.17" d="M259.25,-70.15C246.74,-59.57 227.26,-43.1 212.96,-31"/>
<polygon fill="green" stroke="green" stroke-width="0.17" points="215.32,-28.42 205.42,-24.63 210.8,-33.76 215.32,-28.42"/>
</g>
<!-- &#45;3 -->
<g id="node7" class="node">
<title>&#45;3</title>
<ellipse fill="lightgray" stroke="black" cx="322.62" cy="-81.61" rx="16.62" ry="16.62"/>
<text xml:space="preserve" text-anchor="middle" x="322.62" y="-78.31" font-family="Times,serif" font-size="9.00">&#45;3</text>
</g>
<!-- &#45;3&#45;&gt;0 -->
<g id="edge3" class="edge">
<title>&#45;3&#45;&gt;0</title>
<path fill="none" stroke="green" stroke-width="0.4" d="M308.76,-71.58C305.18,-69.34 301.29,-67.01 297.62,-64.99 270.58,-50.11 238.37,-35.04 217.26,-25.5"/>
<polygon fill="green" stroke="green" stroke-width="0.4" points="218.97,-22.44 208.41,-21.54 216.11,-28.82 218.97,-22.44"/>
</g>
<!-- &#45;1 -->
<g id="node8" class="node">
<title>&#45;1</title>
<ellipse fill="lightgray" stroke="black" cx="373.62" cy="-81.61" rx="16.62" ry="16.62"/>
<text xml:space="preserve" text-anchor="middle" x="373.62" y="-78.31" font-family="Times,serif" font-size="9.00">&#45;1</text>
</g>
<!-- &#45;1&#45;&gt;0 -->
<g id="edge1" class="edge">
<title>&#45;1&#45;&gt;0</title>
<path fill="none" stroke="green" stroke-width="0.15" d="M360.21,-71.38C356.55,-69.11 352.52,-66.8 348.62,-64.99 304.41,-44.47 249.37,-29.03 218.5,-21.21"/>
<polygon fill="green" stroke="green" stroke-width="0.15" points="219.42,-17.83 208.87,-18.82 217.73,-24.62 219.42,-17.83"/>
</g>
</g>
</svg>
