<?xml version="1.0" encoding="UTF-8" standalone="no"?>
<!DOCTYPE svg PUBLIC "-//W3C//DTD SVG 1.1//EN"
 "http://www.w3.org/Graphics/SVG/1.1/DTD/svg11.dtd">
<!-- Generated by graphviz version 13.0.0 (20250608.1624)
 -->
<!-- Pages: 1 -->
<svg width="432pt" height="175pt"
 viewBox="0.00 0.00 432.00 175.00" xmlns="http://www.w3.org/2000/svg" xmlns:xlink="http://www.w3.org/1999/xlink">
<g id="graph0" class="graph" transform="scale(1 1) rotate(0) translate(4 171.46)">
<polygon fill="white" stroke="none" points="-4,4 -4,-171.46 428.23,-171.46 428.23,4 -4,4"/>
<!-- &#45;2 -->
<g id="node1" class="node">
<title>&#45;2</title>
<ellipse fill="lightgray" stroke="black" cx="16.62" cy="-81.61" rx="16.62" ry="16.62"/>
<text xml:space="preserve" text-anchor="middle" x="16.62" y="-78.31" font-family="Times,serif" font-size="9.00">&#45;2</text>
</g>
<!-- 0 -->
<g id="node9" class="node">
<title>0</title>
<ellipse fill="lightblue" stroke="black" cx="203.62" cy="-14.5" rx="14.5" ry="14.5"/>
<text xml:space="preserve" text-anchor="middle" x="203.62" y="-11.2" font-family="Times,serif" font-size="9.00">0</text>
</g>
<!-- &#45;2&#45;&gt;0 -->
<g id="edge2" class="edge">
<title>&#45;2&#45;&gt;0</title>
<path fill="none" stroke="green" stroke-width="0.44" d="M30.01,-71.35C33.67,-69.07 37.71,-66.77 41.62,-64.99 88.3,-43.73 146.58,-28.46 178.98,-20.89"/>
<polygon fill="green" stroke="green" stroke-width="0.44" points="179.68,-24.32 188.65,-18.68 178.12,-17.5 179.68,-24.32"/>
</g>
<!-- &#45;8 -->
<g id="node2" class="node">
<title>&#45;8</title>
<ellipse fill="lightgray" stroke="black" cx="67.62" cy="-81.61" rx="16.62" ry="16.62"/>
<text xml:space="preserve" text-anchor="middle" x="67.62" y="-78.31" font-family="Times,serif" font-size="9.00">&#45;8</text>
</g>
<!-- &#45;8&#45;&gt;0 -->
<g id="edge8" class="edge">
<title>&#45;8&#45;&gt;0</title>
<path fill="none" stroke="green" stroke-width="0.15" d="M82.4,-73.06C87.52,-70.47 93.31,-67.58 98.62,-64.99 127.08,-51.12 160.16,-35.63 181.46,-25.73"/>
<polygon fill="green" stroke="green" stroke-width="0.15" points="182.82,-28.96 190.42,-21.58 179.88,-22.61 182.82,-28.96"/>
</g>
<!-- &#45;7 -->
<g id="node3" class="node">
<title>&#45;7</title>
<ellipse fill="lightgray" stroke="black" cx="133.62" cy="-150.84" rx="16.62" ry="16.62"/>
<text xml:space="preserve" text-anchor="middle" x="133.62" y="-147.54" font-family="Times,serif" font-size="9.00">&#45;7</text>
</g>
<!-- &#45;7&#45;&gt;0 -->
<g id="edge7" class="edge">
<title>&#45;7&#45;&gt;0</title>
<path fill="none" stroke="red" stroke-width="0.19" stroke-dasharray="1,5" d="M128.98,-134.42C124.55,-116.6 120.09,-86.9 131.62,-64.99 141.89,-45.47 163.73,-32.15 180.68,-24.29"/>
<polygon fill="red" stroke="red" stroke-width="0.19" points="181.91,-27.57 189.71,-20.4 179.14,-21.14 181.91,-27.57"/>
</g>
<!-- 2 -->
<g id="node10" class="node">
<title>2</title>
<ellipse fill="none" stroke="black" cx="154.62" cy="-81.61" rx="14.5" ry="14.5"/>
<text xml:space="preserve" text-anchor="middle" x="154.62" y="-78.31" font-family="Times,serif" font-size="9.00">2</text>
</g>
<!-- &#45;7&#45;&gt;2 -->
<g id="edge9" class="edge">
<title>&#45;7&#45;&gt;2</title>
<path fill="none" stroke="red" stroke-width="0.26" stroke-dasharray="1,5" d="M138.38,-134.59C141.05,-126.05 144.43,-115.24 147.41,-105.69"/>
<polygon fill="red" stroke="red" stroke-width="0.26" points="150.68,-106.96 150.32,-96.37 144,-104.87 150.68,-106.96"/>
</g>
<!-- &#45;6 -->
<g id="node4" class="node">
<title>&#45;6</title>
<ellipse fill="lightgray" stroke="black" cx="203.62" cy="-81.61" rx="16.62" ry="16.62"/>
<text xml:space="preserve" text-anchor="middle" x="203.62" y="-78.31" font-family="Times,serif" font-size="9.00">&#45;6</text>
</g>
<!-- &#45;6&#45;&gt;0 -->
<g id="edge6" class="edge">
<title>&#45;6&#45;&gt;0</title>
<path fill="none" stroke="red" stroke-width="0.11" d="M203.62,-64.51C203.62,-56.89 203.62,-47.63 203.62,-39.22"/>
<polygon fill="red" stroke="red" stroke-width="0.11" points="207.12,-39.37 203.62,-29.37 200.12,-39.37 207.12,-39.37"/>
</g>
<!-- &#45;5 -->
<g id="node5" class="node">
<title>&#45;5</title>
<ellipse fill="lightgray" stroke="black" cx="254.62" cy="-81.61" rx="16.62" ry="16.62"/>
<text xml:space="preserve" text-anchor="middle" x="254.62" y="-78.31" font-family="Times,serif" font-size="9.00">&#45;5</text>
</g>
<!-- &#45;5&#45;&gt;0 -->
<g id="edge5" class="edge">
<title>&#45;5&#45;&gt;0</title>
<path fill="none" stroke="red" stroke-width="0.12" d="M244.78,-68.05C237.22,-58.39 226.65,-44.9 218.11,-34"/>
<polygon fill="red" stroke="red" stroke-width="0.12" points="221.1,-32.14 212.18,-26.43 215.59,-36.46 221.1,-32.14"/>
</g>
<!-- &#45;4 -->
<g id="node6" class="node">
<title>&#45;4</title>
<ellipse fill="lightgray" stroke="black" cx="305.62" cy="-81.61" rx="16.62" ry="16.62"/>
<text xml:space="preserve" text-anchor="middle" x="305.62" y="-78.31" font-family="Times,serif" font-size="9.00">&#45;4</text>
</g>
<!-- &#45;4&#45;&gt;0 -->
<g id="edge4" class="edge">
<title>&#45;4&#45;&gt;0</title>
<path fill="none" stroke="green" stroke-width="0.31" d="M291.86,-71.83C274.49,-60.74 244.45,-41.56 224.31,-28.7"/>
<polygon fill="green" stroke="green" stroke-width="0.31" points="226.27,-25.81 215.96,-23.38 222.51,-31.71 226.27,-25.81"/>
</g>
<!-- &#45;3 -->
<g id="node7" class="node">
<title>&#45;3</title>
<ellipse fill="lightgray" stroke="black" cx="356.62" cy="-81.61" rx="16.62" ry="16.62"/>
<text xml:space="preserve" text-anchor="middle" x="356.62" y="-78.31" font-family="Times,serif" font-size="9.00">&#45;3</text>
</g>
<!-- &#45;3&#45;&gt;0 -->
<g id="edge3" class="edge">
<title>&#45;3&#45;&gt;0</title>
<path fill="none" stroke="green" stroke-width="0.12" d="M343.13,-71.54C339.48,-69.26 335.46,-66.91 331.62,-64.99 296.25,-47.31 252.94,-31.75 226.85,-22.99"/>
<polygon fill="green" stroke="green" stroke-width="0.12" points="228.2,-19.75 217.6,-19.93 226,-26.4 228.2,-19.75"/>
</g>
<!-- &#45;1 -->
<g id="node8" class="node">
<title>&#45;1</title>
<ellipse fill="lightgray" stroke="black" cx="407.62" cy="-81.61" rx="16.62" ry="16.62"/>
<text xml:space="preserve" text-anchor="middle" x="407.62" y="-78.31" font-family="Times,serif" font-size="9.00">&#45;1</text>
</g>
<!-- &#45;1&#45;&gt;0 -->
<g id="edge1" class="edge">
<title>&#45;1&#45;&gt;0</title>
<path fill="none" stroke="red" stroke-width="0.22" d="M394.26,-71.27C390.6,-69 386.55,-66.72 382.62,-64.99 329.65,-41.71 262.99,-26.75 227.86,-19.88"/>
<polygon fill="red" stroke="red" stroke-width="0.22" points="228.82,-16.5 218.34,-18.07 227.51,-23.38 228.82,-16.5"/>
</g>
<!-- 2&#45;&gt;0 -->
<g id="edge10" class="edge">
<title>2&#45;&gt;0</title>
<path fill="none" stroke="red" stroke-width="0.18" d="M162.93,-69.56C170.07,-60.08 180.52,-46.19 189.04,-34.86"/>
<polygon fill="red" stroke="red" stroke-width="0.18" points="191.72,-37.13 194.93,-27.04 186.12,-32.92 191.72,-37.13"/>
</g>
</g>
</svg>
